<?xml version="1.0" encoding="UTF-8"?>
<svg xmlns="http://www.w3.org/2000/svg" version="1.1" viewBox="0 0 259 90">
  <defs>
    <style>
      .cls-1 {
        fill: #333;
      }
    </style>
  </defs>
  <!-- Generator: Adobe Illustrator 28.7.0, SVG Export Plug-In . SVG Version: 1.2.0 Build 136)  -->
  <g>
    <g id="_레이어_1" data-name="레이어_1">
      <g>
        <path class="cls-1" d="M136.3,0c-1.7.4-3.2,1.3-4.4,2.7-1,1.2-1.7,2.6-2.2,4.4-.2.8-.2,1.1-.2,2.7,0,2.4.3,3.5,1.4,5.8.9,1.9,1.2,2,2.5.8.8-.8,1.4-1,2.1-1s1.6.6,2,1.9c.7,2,0,3.7-2.2,4.5-1,.4-2.8.7-4.3.8-3.6.2-8.9-.8-16.8-3l-2.2-.6-2.1-.6c-.6-.2-1.4-.4-1.8-.5-1.1-.3-4.9-1.3-6.2-1.6-5.8-1.4-10.5-2-14.6-2-5.9,0-10.5,1.2-14.3,3.8-1.1.8-2.9,2.5-3.7,3.6-1.9,2.7-3.2,6.5-3.1,9.8,0,3.8,1.4,7.7,4.5,12.4,3.5,5.3,8.2,9.1,14,11.3,1.5.6,3.7,1.2,5.2,1.4.9.1,3.5.4,4.4.4,4.3,0,8.2-1.3,10.6-3.6.6-.6,1.4-1.7,1.8-2.6,1.4-2.9,1.3-6.8-.3-10.2-1.3-2.7-3.4-5-6.2-6.7-1.3-.8-2.3-1.2-3.9-1.7-1.9-.6-2.2-.6-2.4.5-.7,3.2-2.6,5.4-5.4,6.2-.9.3-2.9.3-4,.1-2.2-.4-4.2-1.5-6-3.2-2.2-2.2-4.1-5.4-4.7-8.2-.2-.9-.2-2.6,0-3.3,1.1-4.3,5.9-6.7,13.7-7,4.8-.1,10,.7,17.9,2.9,2.2.6,3,.8,6.3,1.8,7.3,2.1,11.6,2.9,16.4,3.3.7,0,1,.1.9.1-.7.3-2.1.9-3.1,1.4-3.7,1.8-6.7,3.9-9.1,6.2-2.3,2.3-3.6,4-4.9,6.5-2.1,4.1-2.7,8.7-1.8,13.5.2,1.3,1,3.8,1.5,5.1,2.6,6.3,7.1,11.7,14.8,17.8.6.5,2.6,2,4.6,3.4,4,3,4.9,3.7,6.2,5,1.4,1.4,2,2.5,1.9,3.5,0,.3-.1.6-.2.7-.1.2-.1.3,0,.7,0,.2,0,.5.1.6.1.2.7.4.8.4.2,0,5.8-3.8,8.4-5.6.4-.3,1-.7,1.3-.9,2.9-2,9-6.6,11.2-8.3,5.4-4.4,8.2-7.3,12.3-12.2,3.9-4.8,7.7-10.6,10.2-15.5,4.1-8.1,6.1-15.2,6-21.8,0-5.3-1.3-9.4-4-12.5-1.1-1.3-2.6-2.4-4.4-3.3-2.1-1-4-1.5-6.4-1.6-3.7-.1-7.5.9-10.4,3-2.2,1.6-4.6,4.4-6.2,7.4-2.4,4.6-3.3,10.5-2.4,15.5.2,1,.7,2.4,1.1,3.3,1.2,2.3,3.1,3.8,5.7,4.2.8.1,3,.2,3.5,0,.5-.1.6-.3.7-.9.2-2.3,1.1-4.3,2.7-5.9,1.5-1.5,3.5-2.3,4.9-2.1,1.4.2,2.4,1.3,2.8,3.1.2.8.1,3.3,0,4.5-1.1,6.1-3.8,12.9-7.4,18.9-4.1,6.9-9.3,12.8-15.9,18.3-1.5,1.3-3.4,2.7-5.2,4-1.7,1.2-1.9,1.3-2,1.3,0,0,0-.3,0-.6.2-.6.2-2,0-2.6-.4-1.4-1.1-2.9-2.9-6.1-2.7-4.8-3.4-6-4.7-8.7-3.6-7.2-5.4-13.1-6.1-19.3-.5-5.4.2-10.8,2.2-15.7,1.4-3.6,3.2-6.4,6-9.6,2.7-3.1,3.4-4.1,4.1-5.7,1.3-3.2,1.1-7.4-.7-10.4-1.1-1.9-2.9-3.3-4.8-3.8-.7-.2-2.4-.3-2.9-.1"/>
        <path class="cls-1" d="M0,14.3s.4.6,1,1.1c1,1.1,1,1.2,2.5,2.8.5.5,1.2,1.3,1.6,1.8s1.5,1.7,2.5,2.8c1,1.1,2.3,2.6,2.9,3.2.6.7,1.2,1.3,1.3,1.3.2.1.4.1.8.1.3,0,.6,0,.7,0,0,0-.1-.3-.3-.6-1.1-1.6-1.6-3.3-1.5-4.6.2-1.7,1.6-3,4-3.7,1.5-.4,2.2-.5,6.1-.5h3.5l1.2,1.6c2,2.7,3.3,4.7,4.6,7,1.1,2.1,2.3,4.2,3.4,6.3.5,1,1.3,2.4,3.7,6.8.8,1.4,1.6,3,1.9,3.5.2.5.6,1,.7,1.3.1.2,1,1.8,1.8,3.4.8,1.4,1.6,2.9,2.3,4.3.8,1.4,1.2,2.3,1.2,2.8v.3h-1.2c-7.5-.4-15.9-4.6-23-11.4l-1.2-1.2h-1.4c-.8,0-1.4,0-1.4,0,0,0,1.3,1.4,3.3,3.2,3.1,2.9,9.3,8.8,13.2,12.6,1.6,1.5,3,2.8,3.1,2.8s.8-.1,1.5-.3c4.2-.9,11.3-1.4,16.7-1.2,3.4.1,6.4.3,8.3.6.8,0,2,.2,2.6.3.6,0,1.3.1,1.6.2.3,0,.9.1,1.3.2,4.6.6,10.2,1.4,14,2.2.5,0,1.3.2,1.7.3.4,0,1,.2,1.2.2.2,0,1.3.3,2.4.5,3.1.7,10,2.4,11.2,2.8.1,0,.9.3,1.7.5,4,1.2,8.6,3,12.3,4.6,3.6,1.6,6.1,3,9.2,4.9.7.4,1.3.8,1.3.7,0,0-.3-.3-.6-.6-.6-.5-1.2-1-1.8-1.5-2.8-2.4-5.4-5.1-7.4-7.5-3.6-4.3-6.3-9.3-7.2-13.4,0-.4-.2-.8-.2-.8,0,0-.4.2-.7.5-2.9,2.8-5.9,4.1-10.3,4.6-2,.2-4,.1-6.6-.3-7-1.2-14.3-5.5-18.9-11-3-3.7-5-7.6-6.2-12-1.2-4.8-.9-9.1.9-13.2,1.3-3,3.8-6,6.7-7.9.4-.3.7-.5.7-.6s-16.3,0-36.2,0-36.2,0-36.2,0M189.1,14.8c1.5,3.9,2.3,7.1,2.7,11.2.2,2.2.1,5.9-.2,8-.4,2.3-.5,3-.8,4.4-2,8-6.4,16.1-13.3,24.4-2.1,2.6-3.3,3.9-6.5,7.1-3.8,3.8-7.8,7.5-12,10.9-.5.4-.9.8-.9.8,0,0,.6-.3,1.4-.8,3.3-2,8.6-4.9,11.4-6.2,6.7-3.1,10.4-4.6,16.6-6.7,2.8-1,3.3-1.1,7.5-2.4,1.7-.5,5.7-1.5,7.7-2,3-.7,8.6-1.9,10.4-2.2.5,0,1.1-.2,1.4-.2.3,0,1.2-.2,2-.3.8-.1,1.7-.3,2-.3,2.7-.4,8.6-1.1,11.5-1.4,5.8-.5,6.8-.5,9.9-.6,1.5,0,2.9,0,3.1,0,.3,0,.4-.1.8-1.2.1-.3.6-1.7,1.1-2.9.5-1.3,1-2.5,1.1-2.8,0-.3.4-1.1.7-2s.8-2.2,1.2-3.1c.3-.9.7-1.9.8-2.2.1-.3.4-.9.5-1.3.1-.4.5-1.4.9-2.3.9-2.4,1.3-3.3,1.3-3.4s-.1-.1-.5-.1-.6,0-1.8.9c-1.3,1-2.1,1.5-4,2.8l-1.7,1.1c-2.4,1.6-6,3.9-10.2,6.3-2.6,1.5-7.4,4-10,5.1-5.2,2.3-8.9,3.4-11.8,3.4-.7,0-1.2,0-1.2,0,0,0,1.2-3.1,2.4-6.3.3-.9.7-1.9.8-2.2s.3-.7.3-.8c0-.2,1.1-2.8,2.9-7.5.5-1.3.9-2.5,1-2.6,0-.1.2-.2.6-.2,2.5,0,4.4.7,6,2.4,1.6,1.7,3,4.4,4,8.1v.5h.9l.8-2.1c.4-1.2.9-2.5,1.1-2.8.2-.4.5-1.3.8-2,.3-.7.6-1.6.8-2.1.2-.4.7-1.9,1.3-3.3.5-1.4,1-2.6,1.1-2.8,0-.2.4-1.2.8-2.2.4-1,.8-2.1.9-2.4.1-.3.5-1.3.8-2.2.3-.9.7-1.8.8-2.1.1-.2.2-.5.1-.5s-.2,0-.4,0c-.3,0-.5.2-1.8,1.5-2.6,2.7-5.3,5.1-7.2,6.5-3.6,2.7-7,4.1-10.1,4.1s-.6,0-.6-.2c0-.2,1.5-4,3.2-8.5.3-.8,1.2-3.1,1.9-5,.7-1.9,1.5-4,1.8-4.7.3-.7.6-1.3.6-1.3s1.1,0,2.2,0c1.6,0,2.3.2,3.1.4,5,1.1,8.9,4.1,12.9,10,1.1,1.6,3.1,5,4.4,7.4.2.4.6,1,.8,1.5l.5.8h.4s.4,0,.4,0l.4-1c.2-.6.8-2.1,1.3-3.5.5-1.4,1.1-2.8,1.6-4.2.1-.3.4-1,.6-1.5.2-.5.4-1.1.6-1.4s.9-2.3,1.7-4.4c.8-2.1,1.5-4,1.6-4.3.1-.3.2-.6.3-.7,0-.1.1-.3.1-.4,0-.1-1.6-.2-35-.2h-35.1l.2.6Z"/>
      </g>
    </g>
  </g>
</svg>