<?xml version="1.0" encoding="utf-8"?>
<!-- Generator: Adobe Illustrator 28.2.0, SVG Export Plug-In . SVG Version: 6.00 Build 0)  -->
<svg version="1.1" id="레이어_1" xmlns="http://www.w3.org/2000/svg" xmlns:xlink="http://www.w3.org/1999/xlink" x="0px"
	 y="0px" viewBox="0 0 120.4 162.3" style="enable-background:new 0 0 120.4 162.3;" xml:space="preserve">
<style type="text/css">
	.st0{opacity:0.3;fill:#FFFFFF;}
</style>
<path class="st0" d="M85.7,50.1c-2.6,0-5.1,1.2-6.7,3.2L66.1,69.8l-7.4-14.5c-0.5-1-0.1-2.2,0.9-2.7c0.3-0.2,0.6-0.2,0.9-0.2h2.7v-1
	H31.4c1.8-0.6,3.9-1.5,5.9-2.8c0,0,4.8-3.2,5.2-7.7c0.3-2.9-1.7-5.5-4.6-5.9c-2.9-0.4-5.5,1.7-5.9,4.6c-0.3,2.9,1.7,5.5,4.6,5.9
	c0.2,0,0.4,0.1,0.6,0.1c-2.6,5.6-10.3,5.9-10.3,5.9v1h0.8c3.4,0,6.1,2.7,6.1,6.1v26.1c0,3.4-2.7,6.1-6.1,6.1h-0.8v1h16.7
	c-6.6,6.9-8.3,16.8-3.6,24.6c1.7,2.8,4,5.1,6.8,6.7c6.9,4.1,16.3,4.3,24.5-0.2c7.1-3.9,11.5-10.6,12.3-17.5l-6.7-1.9
	c2,7.6-0.3,15-6.2,18.3c-5.5,3-12.6,1.7-18.2-2.8c-0.8-0.7-1-1.9-0.3-2.8l18.5-23.7l4.2-5.4l17.9-22.8l0,0c1.1-1.5,1.7-3.3,1.7-5.2
	C94.4,54.1,90.5,50.1,85.7,50.1z M40.8,84.4v-26c0-3.4,2.7-6.1,6.1-6.1c1.5,0,2.9,0.8,3.6,2.2l10.9,21.4l0.5,1l3.4,6.7
	C60.2,83,54.7,84,49.8,86.7c-1.7,1-3.3,2.1-4.8,3.4C42.4,89.4,40.8,87.1,40.8,84.4L40.8,84.4z M68.7,93.2l-17,21.7
	c-0.7,0.9-2,1-2.8,0.3c-0.1-0.1-0.2-0.2-0.3-0.3c-0.7-0.8-1.3-1.7-1.8-2.6c-5.6-9.4-4-20.4,3.6-24.6c5.4-3,12.4-1.7,18,2.6
	C69.2,91.1,69.4,92.4,68.7,93.2L68.7,93.2z M87.8,68.7L76.3,83.5c-0.7,0.9-2,1-2.8,0.3c-0.2-0.2-0.4-0.4-0.6-0.7l-4.5-9
	c-1.1-2.1-0.8-4.6,0.6-6.5l7-9l0,0c1.5-1.9,3.7-2.9,6.1-2.9c4.3,0,7.7,3.5,7.7,7.7C89.8,65.6,89,67.3,87.8,68.7L87.8,68.7z"/>
</svg>
