<svg xmlns="http://www.w3.org/2000/svg" xml:space="preserve" width="258.955px" height="90.031px" x="0px" y="0px" viewBox="0.5 0.002 258.955 90.031"><g fill="#FFF"><path d="M136.805.059c-1.695.363-3.22 1.285-4.402 2.671-1.016 1.192-1.703 2.57-2.199 4.407-.21.8-.23 1.054-.242 2.656 0 2.441.262 3.523 1.391 5.805.949 1.918 1.199 2.004 2.465.82.819-.766 1.371-1.035 2.105-1.035.969 0 1.59.586 2.047 1.918.699 2.05-.082 3.652-2.195 4.484-.988.39-2.813.727-4.313.79-3.566.152-8.938-.81-16.777-3l-2.157-.595-2.097-.578c-.578-.16-1.407-.382-1.844-.504-1.086-.308-4.941-1.277-6.227-1.582-5.82-1.351-10.472-1.984-14.644-2.003-5.95-.012-10.492 1.183-14.274 3.761-1.105.758-2.941 2.543-3.703 3.625-1.93 2.692-3.156 6.512-3.148 9.774.012 3.765 1.445 7.668 4.523 12.375 3.457 5.261 8.23 9.12 13.965 11.261 1.52.57 3.727 1.176 5.168 1.418.902.148 3.465.363 4.375.363 4.3 0 8.223-1.332 10.645-3.625.586-.551 1.433-1.742 1.832-2.555 1.406-2.926 1.304-6.836-.262-10.219-1.254-2.73-3.398-5.012-6.246-6.66-1.32-.766-2.29-1.195-3.945-1.742-1.883-.637-2.153-.57-2.395.527-.687 3.18-2.605 5.406-5.352 6.215-.933.273-2.867.336-4.03.133-2.18-.383-4.192-1.465-5.977-3.227-2.2-2.16-4.079-5.437-4.711-8.242-.207-.894-.227-2.562-.047-3.3 1.05-4.259 5.937-6.743 13.695-6.97 4.754-.136 10.043.712 17.883 2.872 2.195.605 2.969.82 6.273 1.75 7.309 2.078 11.602 2.925 16.434 3.254.668.046 1.004.101.883.148-.707.27-2.133.914-3.117 1.398-3.68 1.825-6.657 3.864-9.114 6.25-2.328 2.266-3.632 3.989-4.918 6.477-2.101 4.063-2.718 8.652-1.832 13.508.243 1.313.977 3.813 1.496 5.078 2.59 6.316 7.079 11.71 14.832 17.805.586.465 2.645 2.012 4.563 3.445 3.977 2.984 4.895 3.719 6.152 4.977 1.445 1.434 2.031 2.508 1.91 3.512-.027.281-.121.605-.207.727-.109.168-.129.344-.082.68.027.242.082.496.121.551.109.16.68.418.848.371.176-.043 5.781-3.801 8.387-5.605.438-.309 1.008-.699 1.266-.887 2.914-1.992 9.031-6.551 11.164-8.301 5.363-4.418 8.25-7.297 12.271-12.223 3.91-4.801 7.726-10.586 10.229-15.531 4.09-8.079 6.055-15.161 6.043-21.8-.008-5.32-1.305-9.383-3.957-12.504-1.137-1.332-2.551-2.395-4.395-3.29-2.113-1.034-4.047-1.519-6.375-1.6-3.707-.141-7.484.94-10.398 2.952-2.246 1.555-4.602 4.36-6.19 7.36-2.442 4.629-3.345 10.492-2.384 15.465.195 1.027.668 2.394 1.133 3.296 1.219 2.34 3.137 3.758 5.699 4.215.828.149 2.969.164 3.527.035.512-.113.633-.27.672-.902.156-2.312 1.07-4.324 2.69-5.945 1.478-1.479 3.454-2.348 4.876-2.145 1.391.2 2.387 1.317 2.766 3.133.181.84.133 3.336-.094 4.527-1.133 6.114-3.797 12.915-7.383 18.895-4.113 6.855-9.254 12.793-15.898 18.344-1.527 1.285-3.41 2.711-5.215 3.98-1.723 1.199-1.91 1.32-1.953 1.273-.031-.027.016-.297.09-.594.181-.633.195-1.996.047-2.57-.37-1.418-1.051-2.879-2.867-6.133-2.66-4.762-3.352-6.047-4.664-8.664-3.613-7.22-5.438-13.063-6.051-19.332-.531-5.375.223-10.809 2.18-15.653 1.441-3.578 3.203-6.402 5.996-9.633 2.707-3.132 3.359-4.062 4.059-5.738 1.34-3.226 1.051-7.426-.699-10.426-1.098-1.875-2.895-3.316-4.793-3.832-.674-.175-2.35-.257-2.928-.136"/><path d="M.5 14.273c0 .04.43.551.957 1.149.988 1.117 1.043 1.183 2.496 2.805.485.539 1.192 1.332 1.574 1.77s1.508 1.714 2.512 2.831c1 1.125 2.293 2.59 2.871 3.242.574.66 1.152 1.258 1.281 1.34.18.121.375.14.84.102.336-.016.633-.063.653-.09.027-.031-.114-.3-.317-.598-1.062-1.566-1.64-3.336-1.5-4.566.203-1.723 1.574-2.988 3.985-3.707 1.527-.446 2.242-.512 6.05-.512h3.532l1.16 1.555c2.004 2.703 3.324 4.722 4.554 6.968q1.724 3.162 3.426 6.336c.512.97 1.305 2.422 3.676 6.801.773 1.434 1.613 2.98 1.863 3.45.242.456.559 1.042.7 1.304.14.25.957 1.758 1.816 3.352a521 521 0 0 0 2.336 4.285c.8 1.445 1.152 2.293 1.152 2.777v.281l-1.18-.059c-7.488-.38-15.94-4.563-22.976-11.375L20.75 42.55l-1.371-.008c-.762 0-1.375.027-1.375.055 0 .074 1.328 1.386 3.258 3.215 3.07 2.905 9.273 8.832 13.199 12.604 1.602 1.547 2.988 2.812 3.082 2.832s.754-.103 1.46-.263c4.165-.913 11.278-1.432 16.704-1.217 3.445.136 6.406.334 8.332.565.82.095 1.973.224 2.563.281.585.055 1.3.137 1.582.184.277.039.894.12 1.347.181 4.637.578 10.242 1.433 13.965 2.151.512.095 1.285.242 1.723.324.438.074.96.188 1.164.233.207.047 1.293.278 2.422.513 3.144.672 10.015 2.401 11.218 2.84.13.047.883.281 1.676.517 3.965 1.198 8.621 2.952 12.336 4.629 3.594 1.627 6.086 2.959 9.16 4.89.68.43 1.258.766 1.274.746.027-.021-.258-.289-.633-.587a70 70 0 0 1-1.75-1.471c-2.754-2.414-5.379-5.07-7.41-7.513-3.574-4.313-6.258-9.317-7.168-13.367-.086-.409-.195-.782-.223-.819-.039-.041-.355.203-.707.55-2.867 2.766-5.887 4.125-10.336 4.649-2 .229-4.039.139-6.648-.31-7.008-1.21-14.281-5.46-18.852-11.021-3.023-3.67-5.027-7.578-6.172-12.011-1.238-4.817-.949-9.082.883-13.172 1.344-2.992 3.848-5.973 6.66-7.95.399-.277.723-.53.723-.55 0-.016-16.273-.035-36.168-.035S.5 14.246.5 14.273m189.141.571c1.496 3.922 2.262 7.136 2.652 11.16.215 2.152.121 5.945-.195 7.965-.363 2.3-.496 3.011-.828 4.379-1.957 8.023-6.371 16.148-13.27 24.41-2.141 2.563-3.332 3.86-6.516 7.063a142 142 0 0 1-12 10.863c-.504.402-.895.754-.867.773.02.02.633-.336 1.371-.793 3.324-2.047 8.574-4.938 11.395-6.242 6.703-3.129 10.445-4.648 16.617-6.742 2.8-.953 3.316-1.121 7.496-2.359 1.676-.492 5.695-1.547 7.727-2.021 3.016-.698 8.602-1.862 10.426-2.163.465-.074 1.09-.184 1.398-.242.305-.055 1.207-.203 2-.324.793-.12 1.715-.262 2.047-.316 2.664-.43 8.613-1.137 11.5-1.363 5.754-.453 6.832-.512 9.914-.566 1.508-.027 2.887-.066 3.055-.094.336-.047.363-.102.801-1.246.13-.336.633-1.66 1.125-2.938.492-1.285.977-2.543 1.07-2.793.094-.262.43-1.137.746-1.957s.848-2.207 1.184-3.074c.324-.875.707-1.855.836-2.191.13-.336.355-.922.492-1.304.148-.38.543-1.414.887-2.282.949-2.441 1.258-3.27 1.258-3.437 0-.121-.105-.149-.531-.149-.531 0-.551.008-1.797.91-1.313.961-2.066 1.485-4.004 2.797l-1.676 1.137c-2.402 1.629-6.035 3.887-10.242 6.336-2.578 1.508-7.355 3.95-9.961 5.094-5.23 2.313-8.945 3.375-11.75 3.383-.66 0-1.191-.02-1.191-.035 0-.039 1.176-3.086 2.395-6.254.344-.875.715-1.852.836-2.188s.262-.691.309-.793c.082-.188 1.078-2.785 2.867-7.453.504-1.332.95-2.496.977-2.59.047-.129.168-.16.645-.16 2.512.012 4.375.746 5.984 2.379 1.648 1.656 3.016 4.441 3.977 8.105l.129.465h.813l.828-2.145c.445-1.184.938-2.457 1.086-2.84.152-.383.496-1.27.758-1.957.258-.692.621-1.614.79-2.051.175-.437.733-1.898 1.257-3.262.512-1.36.996-2.617 1.07-2.793.074-.175.445-1.164.836-2.191.395-1.024.801-2.113.934-2.422.121-.305.492-1.293.836-2.187.336-.895.699-1.836.793-2.086.102-.243.156-.485.129-.532s-.184-.086-.352-.086c-.27 0-.477.176-1.836 1.547-2.633 2.676-5.289 5.07-7.207 6.504-3.602 2.719-6.96 4.063-10.117 4.063-.633 0-.633 0-.578-.235.066-.25 1.488-4.015 3.23-8.523.324-.848 1.191-3.094 1.918-4.985.727-1.902 1.535-4.007 1.797-4.695.27-.68.55-1.27.625-1.297s1.059-.008 2.195.055c1.582.086 2.289.168 3.121.355 4.98 1.137 8.859 4.145 12.855 9.961 1.098 1.602 3.129 4.985 4.414 7.36.195.355.559 1.023.809 1.472l.465.82.431-.027.425-.03.391-1.024c.215-.567.819-2.133 1.344-3.492a574 574 0 0 1 1.617-4.223c.121-.317.383-.977.57-1.461.184-.484.438-1.137.559-1.445s.875-2.282 1.676-4.38c.801-2.104 1.535-4.034 1.648-4.284.102-.262.223-.57.258-.7.047-.129.105-.308.141-.402.066-.148-1.637-.156-34.996-.156h-35.059z"/></g></svg>